<?xml version="1.0" encoding="UTF-8" standalone="no"?>
<!-- Created with Inkscape (http://www.inkscape.org/) -->
<svg id="svg2" xmlns:rdf="http://www.w3.org/1999/02/22-rdf-syntax-ns#" xmlns="http://www.w3.org/2000/svg" height="67.416mm" width="67.002mm" version="1.1" xmlns:cc="http://creativecommons.org/ns#" xmlns:dc="http://purl.org/dc/elements/1.1/" viewBox="0 0 237.40744 238.87546">
 <metadata id="metadata7">
  <rdf:RDF>
   <cc:Work rdf:about="">
    <dc:format>image/svg+xml</dc:format>
    <dc:type rdf:resource="http://purl.org/dc/dcmitype/StillImage"/>
    <dc:title/>
   </cc:Work>
  </rdf:RDF>
 </metadata>
 <g id="layer1" transform="translate(-9.7354 -12.898)">
  <g id="g4158" transform="translate(-38.571 -52.143)">
   <path id="path4172" fill="#adb6c6" d="m48.35 296.19c-0.23498-6.5116 0.38526-8.973 4.3311-17.188 2.5329-5.2731 6.6422-11.47 9.1316-13.772 6.8887-6.3678 19.593-15.191 21.873-15.191 4.8177 0 0.0571 5.3591-6.8024 7.6575-6.5018 2.1786-9.9188 5.8597-9.9188 10.685 0 2.8619 0.5842 4.1571 1.875 4.1571 1.2057 0 1.8845-1.2271 1.9017-3.4375 0.02011-2.5907 1.3002-4.3391 5.1967-7.0974 5.0008-3.5402 5.2863-3.5932 8.7233-1.6206 3.3855 1.943 3.5533 1.9245 3.5533-0.39186 0-1.6388 2.2075-3.677 6.7734-6.2538 3.7254-2.1024 7.4505-4.6385 8.2781-5.6357 0.82757-0.99718 2.4736-1.813 3.6579-1.813 2.8527 0 6.9157-4.6223 6.9157-7.8677 0-1.8786 1.1357-2.8822 4.1508-3.6679 5.6558-1.4738 8.3715-7.6684 6.4653-14.748-1.3173-4.8921-2.0302-5.3909-9.263-6.4807-2.0696-0.31184-4.6845-3.419-15.136-17.986-1.0359-1.4437-2.5107-7.4842-3.2773-13.423-1.5906-12.322-0.74171-14.577 5.4874-14.577h3.7456l-0.88665-11.826c-0.56721-7.5655-0.39702-13.31 0.47237-15.944 0.74747-2.2648 1.6129-7.4899 1.9233-11.611 0.42181-5.6017 1.9119-10.154 5.9028-18.035 2.9362-5.7981 6.6104-12.054 8.1649-13.901 2.9982-3.5631 7.876-13.991 7.876-16.837 0-2.8402 2.5227-3.4621 4.9892-1.2299 2.9881 2.7042 6.9078 1.5269 9.6468-2.8975 2.7021-4.3648 8.0568-10.218 9.3479-10.218 0.55888 0 2.1411 1.125 3.5161 2.5s3.8374 2.5 5.472 2.5 3.6264 0.78856 4.4263 1.7524c0.79989 0.9638 2.8213 2.0954 4.492 2.5148 1.6707 0.41932 3.6267 1.8631 4.3467 3.2084 0.71999 1.3453 3.9706 3.9944 7.2236 5.8868 19.252 11.2 25.335 18.535 32.199 38.826 4.0829 12.07 5.078 16.496 4.2172 18.761-2.7828 7.3192-0.36466 11.666 7.6233 13.704 7.6068 1.9405 11.188 14.231 6.4034 21.974-1.5701 2.5405-2.6534 6.3767-2.6534 9.3962 0 3.0918-0.69623 5.4968-1.7666 6.1025-0.9716 0.54978-1.956 2.6852-2.1875 4.7454-0.31672 2.8182-1.4497 4.2297-4.5753 5.6998-2.2849 1.0748-4.6288 2.7218-5.2087 3.6601-1.4296 2.3132-0.65645 12.375 1.0848 14.116 2.0322 2.0322 1.7245 3.3937-0.7842 3.4689-1.7519 0.0525-1.5712 0.48808 0.90795 2.1875 1.7025 1.1671 4.8705 3.6688 7.04 5.5594 4.7888 4.1732 6.4401 4.3214 6.9651 0.625 0.35795-2.5204 0.98365-2.7664 6.0244-2.3684 8.0964 0.63916 9.3114 1.6786 11.605 9.9279l2.0577 7.4013 5.8431 0.80089c3.2137 0.44049 7.7334 0.80089 10.044 0.80089 8.6169 0 2.6768 8.3495-10.487 14.741-4.8244 2.3423-5.2038 4.7929-1.036 6.6919 2.7168 1.2379 3.4522 0.88527 7.1875-3.4462 7.3537-8.5274 9.6212-10.486 12.139-10.486 3.7948 0 7.6345-5.823 7.7354-11.731 0.0686-4.019 0.32277-4.5972 1.1621-2.6439 0.59086 1.375 1.1138 15.859 1.1621 32.188l0.0879 29.688h-118.54-118.54l-0.27426-7.6zm213.6-19.93c-0.74619-1.3942-1.9762-2.1521-2.7333-1.6842-0.90729 0.56072-0.59136 1.425 0.92663 2.535 3.1044 2.27 3.4019 2.1299 1.8067-0.85081zm-48.56-112.09c-7.0631-17.261-8.7859-23.519-8.0784-29.347 0.62628-5.1585 0.18225-6.7041-3.8176-13.289-2.4895-4.0981-4.5298-7.94-4.5342-8.5376-0.004-0.59756-1.7049-2.0522-3.7789-3.2324-3.5773-2.0357-3.9782-2.0307-7.8046 0.0985-3.2143 1.7886-4.1116 3.1626-4.4174 6.7645-0.33436 3.9372 0.10075 4.7706 3.3754 6.464 2.0676 1.0692 4.6221 1.944 5.6766 1.944 1.0546 0 3.6184 1.5469 5.6974 3.4375 5.1039 4.6415 7.0068 14.025 3.6974 18.233-2.6937 3.4245-2.2489 4.2233 5.1572 9.2605 5.5233 3.7566 5.7751 4.2054 7.3173 13.042 2.1368 12.244 3.062 14.074 3.5565 7.0362 0.26662-3.7945-0.45613-7.9879-2.0467-11.875z"/>
   <path id="path4170" fill="#a5a1a2" d="m50.208 295.98c0.13467-8.8411 3.4411-18.009 6.8896-19.104 1.7365-0.55115 2.11-1.552 1.5759-4.2226-0.50386-2.5193-0.13599-3.7167 1.3126-4.2726 1.5811-0.6067 1.9564-0.0345 1.7505 2.6684-0.1442 1.8924 0.1187 4.057 0.5842 4.8102 0.46551 0.75321-0.54933 2.8755-2.2552 4.7161-3.0803 3.3237-4.473 6.3393-1.6016 3.4678 0.825-0.825 2.9769-1.5 4.7821-1.5 3.8793 0 7.8534-3.8757 10.521-10.261 1.0575-2.5309 2.8222-5.105 3.9217-5.7203 1.0994-0.61528 1.9486-1.49 1.887-1.9438-0.35746-2.6335 0.14738-3.3251 2.4272-3.3251 3.5507 0 4.4569 3.3736 2.1425 7.9757-2.3402 4.6533-4.6818 11.72-4.6818 14.129 0 1.7687 5.274 1.7884 7.0361 0.0264 0.48433-0.48439 1.6306-0.88066 2.5473-0.88066 3.3794 0 1.5122 5.0887-3.8258 10.427-3.0209 3.0209-6.1436 6.709-6.9393 8.1959-1.3224 2.4708-2.3283 2.6806-11.695 2.4389-5.6365-0.14546-10.713-0.86567-11.281-1.6005-0.71478-0.92474-1.2278-0.85501-1.6667 0.2265-0.3487 0.85937-1.2903 1.562-2.0923 1.5615-0.96813-0.00066-1.4183-2.6267-1.3394-7.8125zm53.655-0.624c0.51686-4.6406 1.0767-12.375 1.2441-17.188 0.63297-18.2 4.604-28.535 14.933-38.864 5.9032-5.9032 6.5159-7.0266 6.187-11.344-0.20075-2.6357-0.3982-6.0578-0.43878-7.6047-0.10554-4.023-4.4138-7.8125-8.8819-7.8125-2.9807 0-4.2708-0.8509-5.9375-3.916-1.1712-2.1538-4.2032-6.3658-6.738-9.3599-4.8502-5.7293-6.4051-11.321-6.5617-23.599l-0.0797-6.25 4.6903-0.38812 4.6903-0.38812-0.31527-13.987c-0.45491-20.182 1.5142-32.219 7.1084-43.449 2.5446-5.1084 6.258-11.344 8.2519-13.856 1.994-2.5125 5.0303-7.745 6.7475-11.628 2.8515-6.4477 3.3464-6.9397 5.7092-5.6751 3.9938 2.1374 7.1095 0.40798 12.562-6.9726 2.7553-3.7297 5.4672-6.7813 6.0265-6.7813 0.55926 0 2.035 1.125 3.2793 2.5 1.2444 1.375 3.7939 2.5 5.6657 2.5s4.1035 0.84375 4.9593 1.875c0.85586 1.0312 2.318 1.875 3.2492 1.875 0.93123 0 2.5448 1.2998 3.5858 2.8885s4.2883 4.2077 7.2163 5.8199c9.7764 5.3832 17.843 13.124 19.137 18.363 0.87603 3.5472 1.8404 4.8155 3.6878 4.8499 4.0665 0.0756 5.355 1.5382 6.2969 7.1475 0.49 2.9183 2.5236 9.5247 4.5191 14.681 2.6308 6.7979 3.4283 10.593 2.9013 13.806-1.1995 7.3127 0.97586 10.955 7.6019 12.727 4.7353 1.2665 6.0758 2.2954 7.5324 5.7815 2.4552 5.876 2.2014 11.387-0.72806 15.811-1.3659 2.0625-2.4872 5.8594-2.4918 8.4375-0.006 3.2069-0.56757 4.6875-1.7791 4.6875-0.97395 0-2.0428-0.70313-2.3753-1.5625-0.33243-0.85938-0.4788 1.1472-0.32523 4.459 0.2246 4.8437-0.22095 6.3718-2.2778 7.8125-4.6921 3.2865-7.0058 2.3231-6.9565-2.8965 0.0244-2.5781 0.80037-6.0524 1.7245-7.7205 1.1736-2.1186 1.3487-4.1888 0.58072-6.8667-0.60473-2.1086-1.0995-6.1204-1.0995-8.9152s-1.7912-9.8298-3.9804-15.633c-3.2979-8.7425-3.9944-12.391-4.0625-21.28-0.0789-10.298-0.24743-10.917-4.1964-15.415-2.2628-2.5775-4.4541-6.3858-4.8696-8.463-0.83017-4.1508-6.6152-8.506-11.309-8.5138-4.252-0.007-9.983 6.1208-10.926 11.683-0.76966 4.5383-0.48466 5.1171 4.9986 10.151 5.1566 4.7343 5.7704 5.8542 5.4223 9.8941-0.52117 6.0493 3.3562 11.134 17.588 23.063 3.9817 3.3376 4.3098 4.1687 4.5752 11.587 0.15719 4.3954 0.81349 9.373 1.4584 11.061 0.65274 1.7088 0.73249 5.0215 0.1799 7.4716-0.67969 3.0136-0.37199 6.2997 0.97571 10.42 1.3799 4.2187 1.7884 8.8246 1.3661 15.404-0.602 9.3804-0.60033 9.3865 3.1069 11.304 2.0401 1.055 6.1663 4.183 9.1694 6.9511l5.4601 5.033 1.1948-3.1426c1.6019-4.2134 3.2308-5.0296 8.1829-4.1006 5.742 1.0772 8.1658 7.3252 8.1671 21.053 0.00084 8.7897 0.53647 11.419 3.6794 18.063 2.6989 5.7049 3.9581 10.748 4.7286 18.936 0.5776 6.1384 0.84374 11.78 0.59142 12.537-0.32733 0.98201-22.673 1.3763-78 1.3763h-77.541l0.93975-8.4375zm111.97-59.918c-3.1894-7.0001-5.2158-0.86898-2.3902 7.2317l1.4822 4.249 1.1134-4.2932c0.71241-2.7471 0.63846-5.3355-0.20535-7.1875zm-130.68 44.71c-0.40247-0.65121-0.19896-1.5133 0.45225-1.9158 0.65121-0.40248 1.5133-0.19897 1.9158 0.45225 0.40247 0.65121 0.19896 1.5133-0.45226 1.9158-0.65121 0.40248-1.5133 0.19896-1.9158-0.45225zm1.9965-8.7943c0.53714-1.6114 2.2516-1.9009 2.4062-0.40625 0.05156 0.49844-0.58125 1.1312-1.4062 1.4062-0.825 0.275-1.275-0.175-1-1zm-7.6875-18.054c0-0.2702 0.87296-0.82625 1.9399-1.2357 1.1124-0.42686 1.6142-0.21731 1.1762 0.49126-0.73407 1.1878-3.1162 1.7568-3.1162 0.74443z"/>
   <path id="path4168" fill="#a08677" d="m69.949 293.38c0.2528-9.0812 0.76556-11.184 4.0177-16.476 5.5669-9.0585 6.8682-8.4107 4.1214 2.0516-1.3053 4.972-2.3734 10.822-2.3734 13 0 5.4128-2.3874 11.834-4.4 11.834-1.2646 0-1.5871-2.4576-1.3657-10.41zm35.451 8.8473c-0.32001-0.85938-0.11187-5.2188 0.46253-9.6875 0.5744-4.4688 1.6026-13.188 2.285-19.375 2.2892-20.759 7.1332-30.652 16.204-33.095 4.2214-1.1367 4.785-1.7233 4.542-4.7266-0.1526-1.8858-0.60472-4.2726-1.0047-5.3038-0.4-1.0312-0.99032-4.6048-1.3118-7.9413-0.69525-7.2151-3.058-9.9833-8.3915-9.8317-3.1694 0.0901-4.333-0.63833-6.013-3.7641-1.1457-2.1317-3.8877-5.9344-6.0933-8.4505-5.1792-5.9082-6.3125-9.0774-7.3534-20.564-0.91627-10.111-1.1196-9.7579 5.7387-9.9745 3.0312-0.0957 3.1105-0.32371 2.641-7.5987-0.864-13.388-0.62773-18.553 1.4018-30.647 2.4955-14.871 6.877-24.779 15.74-35.593 1.6862-2.0573 4.0967-6.1456 5.3567-9.085 2.0049-4.6773 2.7425-5.31 5.9087-5.0687 4.603 0.35074 9.1687-2.6391 12.662-8.2918 2.9621-4.7927 5.0893-5.5161 7.5394-2.5638 0.85586 1.0312 3.0496 1.875 4.8749 1.875 3.7824 0 6.9557 1.9579 15.573 9.6084 3.34 2.9654 6.634 5.3916 7.3201 5.3916 3.0885 0 10.978 7.91 12.16 12.192 1.4951 5.4147 1.155 5.9755-2.4526 4.0448-3.9484-2.1131-10.254-0.51209-14.199 3.6048-6.0577 6.3228-5.3293 16.901 1.5953 23.168 1.814 1.6416 2.628 3.8867 2.628 7.2483 0 3.9024 0.83546 5.6645 4.205 8.8688 2.3128 2.1993 4.5451 4.9831 4.9608 6.1863 0.41566 1.2031 1.6292 2.1875 2.6968 2.1875 3.9095 0 11.758 6.4451 13.211 10.849 1.6467 4.9897 0.55299 15.06-1.9442 17.901-2.5047 2.8495-1.5867 8.8137 2.2091 14.353 3.1349 4.5746 3.4111 5.9538 3.4111 17.031v12.054l3.7756 0.75512c2.0766 0.41532 6.4837 3.2882 9.7937 6.3843l6.018 5.6292 2.7166-3.1243c2.1429-2.4646 3.4403-2.9514 6.1438-2.3057 1.885 0.45023 4.1208 1.3644 4.9684 2.0316 2.6239 2.0652 3.9958 9.628 3.2315 17.814-0.65118 6.9733-0.30353 8.7704 3.1759 16.417 2.8596 6.2845 4.1736 11.481 4.9012 19.383 0.54677 5.9382 0.78552 11.423 0.53055 12.188-0.71063 2.1319-151.03 1.9618-151.82-0.17172zm112.3-55.499c0.59282-8.8151 0.37128-10.282-2.0106-13.31-6.3446-8.0658-6.5572 2.7061-0.44885 22.737 1.0245 3.3596 1.7993 0.38991 2.4595-9.4275zm-41.362-19.189c0.4249-0.6875 0.17685-1.25-0.55123-1.25-0.72807 0-1.3238 0.5625-1.3238 1.25s0.24805 1.25 0.55122 1.25c0.30318 0 0.89888-0.5625 1.3238-1.25zm8.125-129.96c0-0.66692-1.6875-2.4602-3.75-3.9851s-3.75-3.4773-3.75-4.3386c0-2.6338-2.577-3.3362-4.1828-1.1401-1.2474 1.706-2.1505 1.8329-5.0902 0.7152-1.9655-0.7473-3.7294-1.2024-3.9197-1.0112-0.1903 0.19111 0.41215 2.1497 1.3388 4.3523 1.1852 2.8173 2.9145 4.3592 5.8319 5.1998 5.5387 1.5959 13.522 1.7186 13.522 0.20782zm-102.5 166.14c0-0.72807 0.5625-0.97612 1.25-0.55122s1.25 1.0206 1.25 1.3238c0 0.30318-0.5625 0.55123-1.25 0.55123s-1.25-0.5957-1.25-1.3238zm135-65.94c0-4.233 2.8148-8.4644 4.8104-7.2311 2.2083 1.3648 1.7923 9.0894-0.53761 9.9835-3.4884 1.3386-4.2728 0.83343-4.2728-2.7524zm7.3578-11.243c-3.9149-0.45424-6.1078-4.5728-6.1078-11.471 0-2.6718-1.7249-10.215-3.8332-16.763-4.0112-12.458-4.4562-20.136-1.1668-20.136 1.3184 0 2.1047 1.8815 2.6487 6.3386 1.1174 9.1542 2.7413 11.469 8.8999 12.687 3.7578 0.74314 5.7406 1.9398 6.8514 4.135 1.9604 3.8742 2.0607 11.504 0.1761 13.388-0.78316 0.78315-2.0488 3.8488-2.8125 6.8125-1.2346 4.7911-1.7508 5.3466-4.6558 5.0095zm-21.064-68.914c-1.6144-3.0165-1.676-6.3322-0.11775-6.3322 1.4608 0 2.0076 0.95243 3.0498 5.3125 0.94919 3.9711-0.9913 4.6459-2.932 1.0197z"/>
   <path id="path4166" fill="#906f62" d="m105.71 301.06c0-3.7013 2.2561-23.411 3.9088-34.147 2.0443-13.28 7.5215-24.375 12.034-24.375 0.99267 0 3.7457-0.921 6.1179-2.0467 3.9189-1.8596 4.2371-2.4022 3.4821-5.9375-0.45702-2.14-1.2549-4.4533-1.7731-5.1408s-1.2263-3.9077-1.5736-7.1561c-0.45516-4.2575-1.722-7.1482-4.5385-10.356-2.1489-2.4475-3.9071-5.2543-3.9071-6.2374 0-2.2158-3.8545-4.3755-7.809-4.3755-5.2199 0-9.688-6.1582-10.987-15.142-0.63468-4.3904-1.1653-9.8107-1.1791-12.045-0.0236-3.8143 0.24215-4.0625 4.3499-4.0625h4.375l-0.0544-5.9375c-0.0299-3.2656-0.52894-8.3939-1.1089-11.396-0.57994-3.0023-0.57855-7.221 0.003-9.375 0.58165-2.154 1.5926-8.3072 2.2465-13.674 1.376-11.293 4.9198-19.309 13.938-31.526 3.4239-4.6382 6.2253-9.1129 6.2253-9.9436 0-2.3005 4.2498-5.6479 7.1706-5.6479 1.4293 0 5.4739-1.4917 8.988-3.3149 5.025-2.607 6.2328-3.8082 5.6561-5.625-1.1588-3.6511 3.0414-2.8513 4.4474 0.84693 1.5976 4.2019 4.5289 5.1457 7.5344 2.4258 2.3512-2.1279 2.5576-2.1261 4.9534 0.04214 1.375 1.2444 2.5 3.1004 2.5 4.1245 0 1.5362-1.4217 1.7293-8.125 1.1033-4.4688-0.4173-8.125-0.32263-8.125 0.21038s1.7441 2.6212 3.8758 4.6405c2.1317 2.0192 4.3741 4.9537 4.9832 6.5211 0.65017 1.6731 3.4478 3.8529 6.7758 5.2795 7.7542 3.3238 8.2181 5.4276 2.33 10.567-4.2957 3.7496-4.6668 4.5109-3.3008 6.772 0.84645 1.4012 1.8932 4.7624 2.326 7.4695 0.54766 3.4249 1.8855 5.7341 4.3985 7.592 2.0333 1.5033 3.6114 3.8439 3.6114 5.3564 0 1.4775 0.68661 4.5851 1.5258 6.9058 1.861 5.1465 0.16166 6.7829-6.5258 6.2842-3.4329-0.25599-4.375-0.86457-4.375-2.8262 0-2.7126-3.8138-11.381-5.453-12.394-0.55614-0.34371-2.6505-0.18197-4.654 0.35941-2.7091 0.732-3.6649 1.7598-3.7286 4.0093-0.0471 1.6638-0.46903 4.0094-0.9375 5.2125-0.46848 1.2031-1.1154 3.0312-1.4376 4.0625-0.32218 1.0312-1.869 1.8835-3.4375 1.8938-6.0164 0.0397-12.738 3.3542-13.64 6.7258l-0.87062 3.2554 8.3294 0.0184c11.12 0.0246 14.404 1.7799 15.204 8.1251 0.70584 5.5985 2.9807 6.7462 8.6867 4.3827 3.5751-1.4808 6.3133-5.8156 6.3133-9.9943 0-1.2928 1.5335-3.5567 3.4079-5.0311 2.9639-2.3314 4.3888-2.5732 10.938-1.8556 10.312 1.1298 16.347 5.1433 18.226 12.12 1.041 3.8661 1.0553 5.895 0.0528 7.5003-0.75583 1.2103-1.3769 2.9113-1.3802 3.78-0.01 2.505-8.3837 10.953-10.868 10.964-2.1218 0.009-5.3762 4.9806-5.3762 8.2126 0 0.81068 3.0641 4.0917 6.8091 7.2912 5.5308 4.7251 7.4082 5.6668 10 5.0163 2.554-0.64101 3.2021-0.33719 3.2471 1.5221 0.0309 1.2777 0.22833 9.9168 0.43865 19.198 0.39989 17.647 2.987 30 6.2828 30 2.3317 0 3.1854-4.0335 3.2053-15.144 0.014-7.8138-0.45629-10.121-2.6254-12.878-1.4534-1.8477-2.2749-3.727-1.8257-4.1763 1.303-1.303 9.5853 3.7081 12.383 7.4921 2.8226 3.8178 5.5276 4.4627 6.6333 1.5814 0.46805-1.2197 2.4101-1.875 5.557-1.875 7.1711 0 8.8619 3.2978 8.429 16.44-0.30022 9.1139 0.0863 11.384 3.054 17.935 3.2082 7.0815 5.8323 20.036 5.8874 29.062l0.0248 4.0625h-75.625-75.625v-2.7278zm72.379-46.501c1.1102-1.3377 0.98292-1.9025-0.5625-2.4955-2.2415-0.86015-6.8164 1.1658-6.8164 3.0185 0 1.8428 5.7539 1.435 7.3788-0.523zm-36.165-27.705c-3.2985-5.3371-2.8915-7.3326 3.7347-18.31 2.7784-4.603 5.0516-8.8667 5.0516-9.475 0-0.60825-2.6719-1.0376-5.9375-0.95416-3.2656 0.0835-6.5611-0.29631-7.3233-0.84395-0.79578-0.57178-2.851 0.15686-4.8273 1.7114-3.0641 2.4102-3.379 3.3361-2.8714 8.4439 0.57025 5.7392 8.0173 22.407 11.981 26.815 2.0468 2.2764 2.1146 2.2676 2.5058-0.3267 0.22114-1.4665-0.81986-4.6434-2.3133-7.0599zm36.127 2.6411c1.9066-0.98592 4.232-2.715 5.1676-3.8423 1.5648-1.8854 0.70595-1.9791-10.716-1.1684-6.8294 0.48475-12.638 1.0752-12.908 1.3121-0.26984 0.23689 0.19288 1.2543 1.0283 2.2609 2.7411 3.3028 12.297 4.0911 17.428 1.4377zm27.64-7.2699c0.0105-0.51563-0.82461-0.9375-1.8559-0.9375-1.9141 0-2.561 2.6473-1.0229 4.1854 0.83934 0.83934 2.8414-1.4195 2.8788-3.248zm-31.231-2.1875c1.4665-0.94775 1.1422-1.2159-1.4887-1.2309-1.85-0.01-3.7114 0.54336-4.1363 1.2309-0.98647 1.5961 3.1552 1.5961 5.625 0zm-3.75-14.926c0-4.354-1.8699-5.9777-3.5097-3.0475-1.5069 2.6926-0.43939 6.7238 1.7805 6.7238 1.0803 0 1.7292-1.3796 1.7292-3.6762zm-61.977-14.583c2.8477-1.0928 2.5836-9.4663-0.41516-13.165-1.3158-1.623-2.6435-2.6697-2.9503-2.326-0.59212 0.66332 0.38214 16.25 1.0157 16.25 0.20489 0 1.2623-0.34143 2.3498-0.75874zm109.5 7.9462c0.01-0.85938 0.56442-2.4062 1.2309-3.4375 0.94422-1.4611 1.2159-1.1162 1.2309 1.5625 0.01 1.8906-0.54336 3.4375-1.2309 3.4375-0.6875 0-1.2414-0.70313-1.2309-1.5625zm4.575-15.51c-0.94629-0.94629 1.4197-4.1775 3.0589-4.1775 0.60332 0 1.097 1.125 1.097 2.5 0 2.4021-2.4445 3.3888-4.1558 1.6775zm-2.5704-12.303c-5.0978-12.517-5.2867-15.693-0.6576-11.064 1.9704 1.9704 2.4482 3.7935 2.1113 8.0556-0.33884 4.2865-0.66138 4.9541-1.4537 3.0088zm-59.524-19.375c0-0.6875 0.84375-1.25 1.875-1.25s1.875 0.5625 1.875 1.25-0.84375 1.25-1.875 1.25-1.875-0.5625-1.875-1.25zm25.669-55.733c-2.4049-3.6704-1.5921-5.4569 1.5786-3.4697 2.3128 1.4496 3.6712 6.7031 1.7332 6.7031-0.65625 0-2.1466-1.4551-3.3118-3.2335z"/>
   <path id="path4164" fill="#725b52" d="m106.18 299.1c0.3791-2.5781 1.3031-10.031 2.0534-16.562 3.2585-28.367 7.0907-38.16 15.718-40.164 1.999-0.46456 5.4435-1.5774 7.6544-2.4731 3.6188-1.466 4.3047-1.3692 6.875 0.97015 2.9314 2.668 7.5085 4.1793 14.105 4.6574 6.0908 0.44149 10.625 2.1572 10.625 4.0204 0 0.96674-1.2402 1.7395-2.7917 1.7395-2.5511 0-2.3874 0.40392 1.9 4.6875 4.3225 4.3186 5.2067 4.6696 11.237 4.46 8.432-0.29312 13.188-2.1473 14.599-5.6918 0.89738-2.2544 0.52348-3.3784-1.8366-5.5213l-2.9634-2.6906 3.6646-1.5179c3.8412-1.5911 12.442-10.276 12.442-12.564 0-0.79412 1.134-0.99377 2.8125-0.49517 7.6735 2.2794 8.1408 11.457 1.0707 21.028-4.4088 5.9679-11.383 20.828-11.383 24.254 0 2.3148-5.5246 10.192-7.1875 10.248-0.86538 0.0292-1.5625 1.6145-1.5625 3.5529 0 1.925-0.57478 4.0748-1.2773 4.7773-0.8697 0.8697-0.47084 2.2071 1.25 4.1913 1.39 1.6027 2.5273 3.1092 2.5273 3.3477 0 0.23855-18.049 0.43374-40.11 0.43374h-40.11l0.68928-4.6875zm69.038-4.3906c0.13627-4.822 3.3008-9.6719 6.3108-9.6719 0.92469 0 1.6813-0.52125 1.6813-1.1584 0-0.63709 0.98437-1.4156 2.1875-1.73 1.2031-0.31441-0.48438-0.63691-3.75-0.71666-4.38-0.107-5.9375-0.63684-5.9375-2.02 0-1.0312 0.53878-1.875 1.1973-1.875 1.6605 0 7.9074-10.915 7.0453-12.31-0.72175-1.1678-22.6-1.2492-23.761-0.0884-0.35682 0.35681-4.3531-2.8952-8.8806-7.2266s-8.7648-7.8754-9.4163-7.8754c-0.65147 0-1.1794 1.2656-1.1731 2.8125 0.0165 4.0696 5.9434 26.733 7.7935 29.801 0.86355 1.432 5.7195 5.9604 10.791 10.063 6.9149 5.5938 10.041 7.3641 12.5 7.079 2.8619-0.33188 3.296-0.9786 3.412-5.0834zm15.078 6.7774c0.33091-1.2654 5.011-7.1846 10.4-13.154 6.29-6.9669 10.476-12.84 11.69-16.403 1.0401-3.0526 2.9796-6.7185 4.3099-8.1464 1.5715-1.6868 2.6982-5.2698 3.2165-10.229 1.2918-12.359 0.9529-16.038-1.8385-19.958-1.45-2.0363-2.3836-3.9552-2.0746-4.2642 0.91348-0.91348 10.713 6.6562 12.19 9.4165 1.7398 3.2509 4.5533 3.2488 6.2945-0.005 1.1341-2.1191 2.133-2.409 5.9815-1.7358 7.0776 1.2382 8.0809 3.3041 7.2382 14.905-0.64873 8.9305-0.37948 10.802 2.5175 17.5 3.0452 7.0406 4.074 11.789 6.026 27.812l0.79943 6.5625h-33.676c-32.088 0-33.648-0.1085-33.074-2.3007zm-33.537-66.837c-2.517-1.7249-5.6099-3.3352-6.873-3.5784-1.2631-0.24325-3.2779-2.5263-4.4773-5.0735-1.7654-3.7492-1.9061-5.2339-0.73881-7.7958 1.9407-4.2593 3.5406-3.9947 3.5406 0.58546 0 3.2576 0.45139 3.75 3.4375 3.75 2.4184 0.00002 4.454 1.2739 6.8661 4.2971 2.6643 3.3391 4.681 4.4848 9.0465 5.1395 3.0898 0.46335 6.8907 0.516 8.4464 0.117 4.3893-1.1258 10.014-6.9807 9.3064-9.6871-0.40073-1.5324 0.5289-3.1853 2.7058-4.8109l3.3163-2.4764-6.875-0.0588c-9.1828-0.0785-11.355-1.4471-8.0753-5.0876 1.3477-1.4959 3.7159-3.2038 5.2628-3.7954 3.7546-1.4359 3.5761-4.6482-0.3125-5.6242-2.0044-0.50308-3.125-1.6634-3.125-3.2358 0-3.6513 5.1004-2.4408 7.456 1.7695 1.586 2.8348 1.6396 3.8624 0.31192 5.9884-2.2958 3.6762-0.89394 4.9646 5.402 4.9646 4.4649 0 5.9026 0.58017 7.5076 3.0298 1.775 2.709 1.7874 3.4038 0.11688 6.5625-1.0276 1.943-4.3044 6.2715-7.2818 9.6189-4.4992 5.0582-6.2558 6.1577-10.401 6.5098-2.7429 0.23299-8.3621 0.78449-12.487 1.2256-6.6877 0.71509-7.9957 0.46227-12.076-2.3342zm-1.7364-32.214c-0.96138-1.5555 5.5606-8.8745 7.0745-7.939 1.2493 0.77213 0.0904 4.2087-2.3954 7.103-2.1614 2.5166-3.4933 2.7546-4.679 0.83592zm-41.082-15.107c-0.28669-0.91655-0.8535-3.1866-1.2596-5.0446-0.40608-1.858-2.0779-4.9355-3.7152-6.839-2.3352-2.7149-2.635-3.738-1.3906-4.7468 1.2347-1.0009 1.315-3.6413 0.36244-11.911-0.88847-7.7133-0.80733-12.781 0.29608-18.492 0.83597-4.3271 1.4897-10.058 1.4528-12.735-0.13714-9.9369 18.357-39.745 21.346-34.404 1.3017 2.326 3.9202 2.4257 5.7516 0.21895 0.81622-0.98349 2.9199-1.4359 5.153-1.1081 4.5025 0.66083 5.3051-2.5023 1.2737-5.02-1.375-0.8587-2.5-2.2499-2.5-3.0916 0-1.3633 3.7056-4.1183 5.5392-4.1183 1.5233 0 10.711 9.1376 10.711 10.653 0 1.7468 10.722 9.3473 13.186 9.3473 0.8292 0 2.1767 0.80612 2.9944 1.7914 1.2029 1.4495 0.81463 2.2095-2.0344 3.982-1.9366 1.2048-4.4077 3.2648-5.4913 4.5776-1.1267 1.3651-4.07 2.6066-6.875 2.8999-2.6977 0.28205-9.6861 1.0275-15.53 1.6566-5.8438 0.62907-11.309 1.1885-12.144 1.2432-0.83545 0.0547-3.4404 1.7864-5.7888 3.8484-6.5661 5.7651-7.6222 11.524-7.6597 41.768-0.0245 19.771-0.41307 26.27-1.5943 26.666-0.85901 0.28827-1.7964-0.22578-2.0831-1.1423zm51.154 0.22369c-0.4646-0.75177-1.8751-1.0398-3.1344-0.64014-3.3075 1.0498-4.2963-1.4947-1.2205-3.1408 3.7974-2.0323 8.0955-1.0837 8.0955 1.7866 0 2.7295-2.4718 4.0473-3.7406 1.9943zm9.6782-3.6666c-3.7327-3.1511-3.5462-6.2106 0.73907-12.126 2.9607-4.0871 3.3342-5.3899 2.2452-7.8305-1.9749-4.4259 1.642-6.4009 11.63-6.3502 6.1434 0.0312 8.9036 0.62975 11.011 2.3879 4.3819 3.6555 3.5301 5.1833-2.5 4.4842-4.7824-0.55441-4.902-0.50823-1.1988 0.46282 5.4003 1.4161 9.2121 4.9769 8.7538 8.1775-0.33604 2.347-1.1172 2.5387-9.1175 2.2371-9.9571-0.37532-12.686 0.98475-13.33 6.6431-0.51478 4.524-4.1421 5.3675-8.2325 1.9144zm5.225-6.207c0.37676-0.6096-0.15255-1.8035-1.1762-2.653-1.5489-1.2855-1.8612-1.0995-1.8612 1.1084 0 2.6817 1.7764 3.5851 3.0375 1.5447zm-49.287 2.9126c0-2.6432 1.1348-3.7114 6.5625-6.178l6.5625-2.9822-5-0.0673c-2.9492-0.0397-6.7291 0.98684-9.2159 2.5029-4.6832 2.8551-7.6591 2.4451-7.6591-1.0553 0-2.936 5.6709-7.1496 11.98-8.9012 7.4857-2.0784 18.647-1.7548 20.599 0.59722 1.3552 1.6329 1.3279 2.1647-0.15944 3.1059-0.98704 0.62457-2.4646 1.1442-3.2834 1.1547-3.5443 0.0456-2.6998 2.7246 1.3988 4.4371 5.0366 2.1044 5.5226 3.999 2.1075 8.2164-2.2403 2.7666-2.6597 2.8347-8.4375 1.3695-4.3477-1.1026-7.3243-1.1803-10.447-0.27285-2.4017 0.69797-4.5111 1.269-4.6875 1.269-0.17641 0-0.32075-1.4381-0.32075-3.1958zm0.625-91.804c-0.4249-0.6875-0.17685-1.25 0.55123-1.25 0.72807 0 1.3238 0.5625 1.3238 1.25s-0.24806 1.25-0.55123 1.25c-0.30318 0-0.89887-0.5625-1.3238-1.25z"/>
   <path id="path4162" fill="#522d35" d="m106.23 302.72c0.36279-0.587 1.5267-7.4776 2.5866-15.312 4.1382-30.592 5.8257-37.722 9.6416-40.735 0.89909-0.71007 4.9192-2.3049 8.9336-3.5441 8.4324-2.603 8.8846-2.3 10.153 6.8035 1.7673 12.689 5.9352 29.609 8.1936 33.263 2.438 3.9448 14.967 14.481 21.824 18.353 3.6414 2.0561 2.5643 2.137-29.105 2.1875-18.087 0.0289-32.589-0.42788-32.227-1.0149zm87.083-2.3544c1.6667-1.8819 6.4271-7.1102 10.579-11.618 4.1516-4.5082 8.5248-10.422 9.7184-13.141 1.1935-2.7193 3.2939-7.0465 4.6676-9.616 3.3685-6.3012 5.7285-23.145 3.9555-28.231-1.1024-3.1624-1.0244-3.7054 0.45118-3.1391 0.98128 0.37657 1.787 1.0463 1.7904 1.4884 0.004 0.44206 1.328 2.4557 2.9435 4.4748l2.9373 3.671 3.2389-2.5477c2.5232-1.9847 4.2896-2.3737 7.994-1.7604l4.7551 0.7873 0.0204 10.589c0.0225 11.658 1.1195 17.794 3.9902 22.318 1.0396 1.6385 2.3596 6.701 2.9332 11.25s1.4272 10.662 1.8968 13.583l0.85391 5.3125h-32.878-32.878l3.0304-3.4217zm-39.766-70.719c-4.6164-3.1202-5.154-4.6098-1.664-4.6098 1.3282 0 3.6165 1.6875 5.0851 3.75 3.1313 4.3976 2.1703 4.6391-3.4211 0.85981zm33.908-5.2162c1.4087-4.5006 4.1008-6.5562 6.0429-4.6142 1.1027 1.1027-4.558 8.9706-6.454 8.9706-0.5238 0-0.33877-1.9604 0.41117-4.3564zm-75.865-47.75c-1.9017-2.6728-2.8552-5.175-2.2645-5.9426 0.5612-0.7292 0.47646-6.6084-0.18831-13.065-0.85251-8.28-0.79762-13.111 0.18627-16.395 0.76722-2.5607 1.3949-7.809 1.3949-11.663 0-11.023 9.0782-28.328 14.861-28.328 1.1764 0 2.6733-0.52312 3.3264-1.1625 2.31-2.2614 12.211-4.9624 14.229-3.8819 1.0915 0.58417 3.6661 0.78911 5.7213 0.45542 2.1223-0.34458 3.1395-0.15939 2.3545 0.42864-0.76021 0.56945-1.7599 3.0904-2.2215 5.6022-0.94671 5.1512-2.4529 6.0582-10.061 6.0582-9.1792 0-19.191 9.0918-23.887 21.692-2.0994 5.6327-2.1492 7.6297-0.69655 27.925 0.86048 12.022 1.3318 22.092 1.0473 22.376-0.28443 0.28444-1.9954-1.5604-3.802-4.0996zm24.128 0.87581c6.153-4.7751 13.775-4.7366 11.209 0.0567-1.0327 1.9296-2.6271 2.4185-7.8159 2.3963l-6.5185-0.0278 3.125-2.4252zm52.009-6.9964c-0.41731-1.0875-0.75873-2.2125-0.75873-2.5 0-1.1856 10.37-0.41102 12.895 0.96313l2.7303 1.4859-3.125 0.8895c-5.7071 1.6245-10.94 1.2508-11.741-0.83853zm-53.375-1.8446c-1.8875-1.1666 1.6232-3.0648 7.6162-4.118 4.9672-0.87294 8.9085 0.67174 6.1167 2.3972-2.511 1.5519-12.068 2.7495-13.733 1.7208zm47.901-7.6746c0.33807-1.0244 3.2143-1.7691 7.7524-2.0073 5.4922-0.28823 7.0866 0.0103 6.6775 1.25-0.33806 1.0244-3.2143 1.7691-7.7524 2.0073-5.4922 0.28824-7.0866-0.0102-6.6775-1.25z"/>
   <path id="path4160" fill="#1d191c" d="m221.96 301.57c0-1.2189 1.4182-7.8068 3.1515-14.64 1.7333-6.8329 4.3173-19.195 5.7421-27.471 1.4248-8.2763 3.1693-15.751 3.8766-16.61 1.7683-2.1486 9.0868-1.9685 10.944 0.26926 1.0266 1.237 1.2178 3.5707 0.58879 7.1875-0.51229 2.9457-0.84401 8.9507-0.73719 13.345 0.10688 4.3939-0.86821 12.55-2.1668 18.125-1.2986 5.5749-2.7415 12.808-3.2066 16.074l-0.84556 5.9375h-8.6734c-7.4698 0-8.6734-0.30754-8.6734-2.2162zm-108.21-182.33c1.0565-4.2936 4.0766-9.1971 5.6647-9.1971 3.9513 0 0.95109 8.7581-3.8873 11.348-2.4865 1.3307-2.6002 1.1932-1.7774-2.1504z"/>
  </g>
 </g>
</svg>
